HIERARCHY
ROOT root
{
	OFFSET 0.000000 0.000000 0.000000
	CHANNELS 6 Xposition Yposition Zposition Zrotation Yrotation Xrotation
	JOINT lhip
	{
		OFFSET 0.058581 -0.082280 -0.017664
		CHANNELS 3 Zrotation Yrotation Xrotation
		JOINT lknee
		{
			OFFSET 0.043451 -0.386469 0.008037
			CHANNELS 3 Zrotation Yrotation Xrotation
			JOINT lankle
			{
				OFFSET -0.014790 -0.426874 -0.037428
				CHANNELS 3 Zrotation Yrotation Xrotation
				JOINT ltoe
				{
					OFFSET 0.041054 -0.060286 0.122042
					CHANNELS 3 Zrotation Yrotation Xrotation
					End Site
					{
						OFFSET 0.000000 0.000000 0.000000
					}
				}
			}
		}
	}
	JOINT rhip
	{
		OFFSET -0.060310 -0.090513 -0.013543
		CHANNELS 3 Zrotation Yrotation Xrotation
		JOINT rknee
		{
			OFFSET -0.043257 -0.383688 -0.004843
			CHANNELS 3 Zrotation Yrotation Xrotation
			JOINT rankle
			{
				OFFSET 0.019056 -0.420046 -0.034562
				CHANNELS 3 Zrotation Yrotation Xrotation
				JOINT rtoe
				{
					OFFSET -0.034840 -0.062106 0.130323
					CHANNELS 3 Zrotation Yrotation Xrotation
					End Site
					{
						OFFSET 0.000000 0.000000 0.000000
					}
				}
			}
		}
	}
	JOINT lowerback
	{
		OFFSET 0.004439 0.124404 -0.038385
		CHANNELS 3 Zrotation Yrotation Xrotation
		JOINT upperback
		{
			OFFSET 0.004488 0.137956 0.026820
			CHANNELS 3 Zrotation Yrotation Xrotation
			JOINT chest
			{
				OFFSET -0.002265 0.056032 0.002855
				CHANNELS 3 Zrotation Yrotation Xrotation
				JOINT lowerneck
				{
					OFFSET -0.013390 0.211636 -0.033468
					CHANNELS 3 Zrotation Yrotation Xrotation
					JOINT upperneck
					{
						OFFSET 0.010113 0.088937 0.050410
						CHANNELS 3 Zrotation Yrotation Xrotation
						End Site
						{
							OFFSET 0.000000 0.000000 0.000000
						}
					}
				}
				JOINT lclavicle
				{
					OFFSET 0.071702 0.114000 -0.018898
					CHANNELS 3 Zrotation Yrotation Xrotation
					JOINT lshoulder
					{
						OFFSET 0.122921 0.045205 -0.019046
						CHANNELS 3 Zrotation Yrotation Xrotation
						JOINT lelbow
						{
							OFFSET 0.255332 -0.015649 -0.022946
							CHANNELS 3 Zrotation Yrotation Xrotation
							JOINT lwrist
							{
								OFFSET 0.265709 0.012698 -0.007375
								CHANNELS 3 Zrotation Yrotation Xrotation
								End Site
								{
									OFFSET 0.000000 0.000000 0.000000
								}
							}
						}
					}
				}
				JOINT rclavicle
				{
					OFFSET -0.082954 0.112472 -0.023707
					CHANNELS 3 Zrotation Yrotation Xrotation
					JOINT rshoulder
					{
						OFFSET -0.113228 0.046853 -0.008472
						CHANNELS 3 Zrotation Yrotation Xrotation
						JOINT relbow
						{
							OFFSET -0.260127 -0.014369 -0.031269
							CHANNELS 3 Zrotation Yrotation Xrotation
							JOINT rwrist
							{
								OFFSET -0.269108 0.006794 -0.006027
								CHANNELS 3 Zrotation Yrotation Xrotation
								End Site
								{
									OFFSET 0.000000 0.000000 0.000000
								}
							}
						}
					}
				}
			}
		}
	}
}
MOTION
Frames: 10
Frame Time: 0.033333
0.235421 -1.022186 0.986594 -149.339325 -3.098367 92.551863 10.372974 1.353399 -16.396508 -4.709143 4.231536 9.302299 1.042100 7.180172 -8.115606 0.000000 -0.000000 0.000000 -13.551422 -10.306399 -14.296340 0.651758 -19.890875 22.621348 3.499867 -4.297375 -10.299186 0.000000 -0.000000 0.000000 7.187891 3.864760 3.987016 1.063679 4.378745 15.866615 0.182533 1.795478 -0.724740 -4.005980 13.228733 2.227876 -6.197654 14.090218 1.438718 -28.517139 4.249664 2.355108 -45.293942 2.984880 11.754342 3.241018 -69.704087 26.667618 7.346396 -6.547656 -6.970233 31.398450 9.942582 9.509519 41.298784 25.595976 3.325799 -15.624715 38.368102 -31.793910 -7.175949 7.537674 -43.301541 
0.237810 -1.019284 0.984138 -149.337477 -2.631009 92.781065 11.189255 -0.424474 -16.831806 -3.992533 4.150540 5.702573 0.298592 8.320320 -9.508395 0.000000 -0.000000 0.000000 -12.889079 -8.993396 -14.753126 1.107151 -19.071813 23.029876 3.760389 -6.624615 -11.095902 0.000000 -0.000000 0.000000 7.932149 4.245647 4.051365 1.301793 4.585445 15.806908 0.250682 1.919231 -0.228374 -3.607900 12.855985 1.970994 -5.943491 13.976133 2.461481 -28.556506 3.744424 2.945100 -46.102887 3.116500 12.104846 4.811003 -68.190028 21.250046 10.221102 -7.518325 -5.228183 30.728965 11.122914 9.613976 40.411511 27.794001 2.389727 -17.294244 34.566056 -35.170335 -8.358035 6.912745 -39.829231 
0.238238 -1.015812 0.981942 -149.617995 -2.282879 92.748069 11.507396 -0.524582 -17.246633 -3.496237 3.872846 4.381523 -1.996055 7.987717 -12.110019 0.000000 -0.000000 0.000000 -12.388780 -8.414758 -15.153196 0.647457 -19.128997 24.140034 4.161418 -6.871996 -11.885555 0.000000 -0.000000 0.000000 8.284425 4.497666 4.191232 1.452519 4.922726 16.107298 0.305432 2.323104 -0.223988 -3.082843 12.586667 2.423844 -5.759659 13.909854 2.263152 -28.439958 3.432376 3.244202 -46.822380 3.558988 12.357189 5.534566 -67.507177 19.015530 12.180490 -7.641893 -5.048560 30.061626 11.955076 9.473351 39.849011 28.930569 1.493828 -18.065278 31.829289 -36.261469 -9.730066 6.360349 -37.801282 
0.235909 -1.011771 0.978779 -150.048024 -1.515774 92.758695 11.504324 -0.307998 -17.705276 -3.171651 2.608529 4.668352 -2.530673 7.145309 -11.691965 0.000000 -0.000000 0.000000 -11.648618 -7.834095 -15.758962 0.122662 -19.232886 25.625776 3.950236 -6.935625 -12.673735 0.000000 -0.000000 0.000000 8.795252 4.638371 4.940735 1.524769 5.850858 15.222130 0.407924 2.805098 0.281561 -2.389500 12.365727 2.139685 -5.538943 13.676850 2.027643 -28.206440 3.847886 2.908431 -47.285209 3.540212 12.118588 2.569964 -66.960817 21.711533 13.439240 -7.261121 -4.311676 29.028505 12.060978 8.943970 40.290369 28.578077 1.427197 -19.671980 32.065178 -36.667385 -14.661751 5.466651 -36.091418 
0.234099 -1.010102 0.977645 -149.949521 -1.144363 92.894892 11.561561 -0.310092 -17.692444 -3.119453 1.205565 4.457075 -2.301052 7.056024 -11.094023 0.000000 -0.000000 0.000000 -11.341189 -7.870907 -15.798083 0.201381 -19.151834 25.758392 3.637593 -7.164420 -12.684720 0.000000 -0.000000 0.000000 8.943876 4.677654 4.590625 1.622653 5.882295 15.360051 0.499087 2.825456 0.210399 -2.526937 12.124017 2.465502 -5.164686 14.231247 1.620998 -28.213600 3.728680 2.890827 -47.641007 4.002403 12.441727 3.327985 -67.012048 21.453396 14.039468 -6.617937 -4.730702 28.152127 12.182789 9.022204 41.378598 27.393058 2.552141 -18.720711 33.697262 -35.630551 -11.024741 2.229435 -41.424834 
0.228819 -1.006281 0.975640 -149.530179 -0.600861 93.285607 11.847283 -0.402536 -17.951994 -3.036555 -0.209071 4.280301 -2.377869 6.520212 -9.333139 0.000000 -0.000000 0.000000 -10.998812 -7.982632 -15.835390 0.209752 -19.147068 26.006700 3.333489 -7.585269 -12.792973 0.000000 -0.000000 0.000000 9.058326 4.710721 3.646330 1.757786 5.745982 15.572962 0.541707 2.697134 0.196885 -2.564820 12.277726 2.709618 -4.870568 15.302368 1.509157 -28.405559 3.747885 3.059385 -47.871911 4.251244 12.337724 2.407444 -67.118591 22.320651 14.535236 -6.280901 -4.605385 27.835893 11.940219 9.329740 42.013877 26.592085 2.980281 -18.955614 36.130341 -35.362408 -10.924121 2.230720 -42.434084 
0.222924 -1.001904 0.973325 -149.886396 -0.433088 93.737894 12.623078 -0.492646 -18.200763 -3.548052 0.722461 4.623964 -3.324111 7.094087 -7.704137 0.000000 -0.000000 0.000000 -11.195956 -7.182859 -16.319629 0.047261 -19.369812 26.751628 3.452796 -7.849496 -13.147120 0.000000 -0.000000 0.000000 8.392272 4.999285 2.833038 1.928630 6.042628 15.469693 0.581883 2.553507 0.041848 -2.097059 13.294610 3.520335 -4.710748 16.470393 1.503154 -28.244959 3.796821 3.491984 -47.945826 4.376043 12.576684 1.014329 -67.524963 23.673234 15.017857 -6.248141 -4.797608 27.968230 11.227309 9.513246 43.126043 26.075719 3.945776 -18.884374 38.297613 -34.555327 -11.098385 1.943634 -43.580132 
0.215683 -0.998280 0.970648 -149.748984 -0.317532 94.287835 13.196786 0.000626 -19.370260 -4.130516 2.200934 6.220728 -4.938957 6.525667 -5.976490 0.000000 -0.000000 0.000000 -11.540392 -7.047152 -16.794111 -0.316650 -19.908178 27.688626 3.669308 -7.592738 -13.639876 0.000000 -0.000000 0.000000 7.953525 5.217060 1.874285 2.047658 6.102276 15.417077 0.446234 2.470518 -0.085525 -1.717395 15.185583 3.933306 -4.871007 18.165774 1.607409 -27.924687 3.898473 3.594803 -47.730896 4.622007 12.956103 -1.096628 -69.483517 26.816928 14.967938 -6.640619 -4.836502 28.358866 10.375000 9.667924 43.856305 25.629497 4.377382 -18.413188 40.236046 -33.294637 -10.744356 1.901608 -44.119099 
0.208098 -0.996279 0.968995 -149.697309 -0.447571 94.239852 13.131680 0.570843 -19.728896 -5.149997 2.517940 7.339015 -4.838424 5.428213 -4.986665 0.000000 -0.000000 0.000000 -12.247306 -7.307438 -16.812242 -0.447662 -19.815067 28.599405 3.967754 -7.484187 -13.931547 0.000000 -0.000000 0.000000 7.586043 5.423414 2.512497 1.878604 6.687021 14.576674 0.507005 2.453006 0.179345 -2.064501 17.109797 3.292481 -5.625919 20.275508 1.553873 -27.750046 4.357026 3.241197 -47.491128 4.704934 12.500233 -0.007694 -73.266491 29.588171 16.216186 -7.720739 -1.060063 28.839452 9.895505 9.628553 43.787114 25.070826 4.050640 -18.251856 41.435108 -31.903659 -11.121380 3.450309 -42.076801 
0.200869 -0.995298 0.967415 -149.704219 -0.588673 94.417768 12.635177 0.763797 -20.560940 -5.584280 2.593604 8.674661 -3.707587 5.854167 -4.245445 0.000000 -0.000000 0.000000 -12.789147 -7.754127 -17.126396 -0.397834 -19.147330 29.226728 3.978525 -7.815863 -14.072671 0.000000 -0.000000 0.000000 7.541304 5.910429 3.103110 1.568051 7.468602 13.576646 0.495151 2.663063 0.675416 -3.281457 18.796921 2.115075 -6.324341 22.947639 1.789167 -27.283358 4.863739 2.528321 -47.423572 4.609999 11.266706 9.792333 -77.095684 24.592149 22.317282 -8.466845 4.517764 29.061038 9.676098 9.488194 43.980681 24.067110 3.650194 -18.176420 42.079626 -29.664145 -9.060046 3.924490 -40.637368 
